# xmcd
#
# Track frame offsets:
# 150
# 22625
# 40732
# 59212
# 79510
# 103820
# 128187
# 145572
# 172285
# 188745
# 206702
# 226500
# 247472
#
# Disc length: 3539 seconds
#
#
# Revision: 0
# Processed by: cddbd v1.5.2PL0 Copyright (c) Steve Scherf et al.
# Submitted via: FreeRIP 2.95 
#
DISCID=b20dd10d
DTITLE=Cesar Oliveira - Na Hora do Amargo
DYEAR=1998
DGENRE=Alternative
TTITLE0=Milonga de todo laço
TTITLE1=Coplas pra um dia de chuva
TTITLE2=Quando a alma abre as porteiras
TTITLE3=De noite no galpão
TTITLE4=Na hora do amargo
TTITLE5=Velhas estâncias
TTITLE6=Na alma das milongas
TTITLE7=Onde andará?
TTITLE8=Depois da lida
TTITLE9=A saudade
TTITLE10=Quando se vai um amor
TTITLE11=Auroras frias
TTITLE12=A paixão
EXTD=
EXTT0=
EXTT1=
EXTT2=
EXTT3=
EXTT4=
EXTT5=
EXTT6=
EXTT7=
EXTT8=
EXTT9=
EXTT10=
EXTT11=
EXTT12=
PLAYORDER=
